<?xml version="1.0" encoding="UTF-8"?>
<svg width="1e3" height="1e3" version="1.1" viewBox="0 0 1e3 1e3" xml:space="preserve" xmlns="http://www.w3.org/2000/svg"><g transform="matrix(1.3333 0 0 1.3333 0 2.5e-5)"><path d="m290.93 69.355c-0.508 0.192-0.723 1.153-0.723 2.915 0 2.378-0.515 3.3-2.297 4.113-3.039 1.383-2.898 2.531 0.461 3.703 2.024 0.703 2.754 1.543 2.754 3.152 0 1.203 0.281 2.473 0.621 2.813 0.34 0.344 1.61-0.305 2.817-1.438 1.472-1.386 3.07-1.968 4.886-1.777 3.047 0.32 3.325-0.395 1.278-3.313-1.063-1.515-1.172-2.472-0.453-3.816 1.699-3.18 1.187-3.996-2.106-3.379-2.379 0.445-3.43 0.164-4.734-1.277-1.188-1.309-1.992-1.891-2.504-1.696zm194 9.223c-0.633 0.102-1.063 1.168-1.539 3.25-0.653 2.836-1.496 3.785-4.746 5.352l-3.95 1.906 3.735 2.469c3.328 2.203 3.734 2.871 3.734 6.133 0 3.882 0.859 4.566 2.797 2.234 2.207-2.66 4.394-3.293 7.957-2.313 1.859 0.516 3.527 0.782 3.711 0.598 0.183-0.184-0.313-1.887-1.106-3.785-1.355-3.242-1.332-3.637 0.407-6.582 1.015-1.719 1.847-3.313 1.847-3.539 0-0.223-1.832-0.403-4.07-0.403-3.477 0-4.355-0.406-6.031-2.757-1.281-1.797-2.117-2.664-2.746-2.563zm-106.93 31.199c-0.461 0.133-0.547 0.965-0.547 2.575 0 1.902-0.699 3.187-2.297 4.234-2.961 1.941-2.89 2.508 0.461 3.769 2.016 0.762 2.754 1.637 2.754 3.262 0 1.223 0.309 2.531 0.68 2.903 0.375 0.371 1.558-0.434 2.636-1.786 1.653-2.07 2.414-2.359 4.832-1.828 3.235 0.711 3.547 0.016 1.387-3.066-1.187-1.699-1.281-2.578-0.461-4.379 1.571-3.445 1.289-3.957-1.695-3.102-2.117 0.61-3.219 0.391-4.965-0.98-1.492-1.172-2.328-1.734-2.785-1.602zm-117.49 15.18c-0.336 0.043-0.539 0.363-0.758 0.914-0.359 0.91-0.684 3.098-0.719 4.867-0.058 2.754-0.597 3.516-3.742 5.309-2.016 1.152-3.664 2.465-3.664 2.91 0 0.449 1.828 1.516 4.066 2.371 3.7 1.41 4.129 1.899 4.7 5.356 0.347 2.089 0.839 4.144 1.089 4.574 0.25 0.422 2.036-0.77 3.961-2.653 3.243-3.164 3.825-3.39 7.668-2.957 2.285 0.258 4.36 0.274 4.606 0.028 0.242-0.242-0.625-2.129-1.922-4.188-2.332-3.695-2.344-3.8-0.863-7.933 0.828-2.309 1.496-4.465 1.496-4.797-4e-3 -0.336-1.985-0.082-4.403 0.554-4.363 1.153-4.422 1.137-8.007-1.964-2.016-1.743-2.954-2.457-3.508-2.391zm313.3 19.715c-0.507 0.191-0.722 1.152-0.722 2.914 0 2.379-0.516 3.301-2.297 4.113-2.977 1.356-2.887 2.117 0.465 4.024 1.926 1.097 2.75 2.269 2.75 3.906 0 2.93 0.937 2.957 3.633 0.09 1.629-1.735 2.714-2.129 4.75-1.723 3.011 0.602 3.203 0.168 1.238-2.828-1.078-1.641-1.184-2.715-0.461-4.617 1.328-3.496 1.289-3.551-2.117-2.91-2.383 0.445-3.43 0.16-4.735-1.278-1.187-1.312-1.992-1.886-2.504-1.695zm-123.88 38.422c-0.996 0-0.973 2.531 0.047 5.051 0.406 1.015 0.355 2.32-0.125 2.917-0.59 0.743-0.196 1.446 1.261 2.219 2.934 1.563 8.098 5.742 8.098 6.551 0 0.367-1.031 0.27-2.293-0.211-1.801-0.683-2.301-0.582-2.301 0.465 0 0.738 1.063 1.605 2.363 1.934 1.297 0.324 4.325 1.941 6.723 3.593 2.399 1.649 6.692 3.735 9.535 4.629 5.438 1.715 6.121 3.156 1.5 3.156-4.027 0-8.64-2.218-11.797-5.671-1.972-2.161-3-2.723-3.519-1.938-1.137 1.719-5.344-1.484-8.77-6.668-2.757-4.18-5.082-5.551-4.488-2.652 0.148 0.726-0.121 1.316-0.594 1.316-0.472 0-0.8 1.063-0.73 2.36 0.105 1.871 1.234 2.964 5.418 5.265 2.902 1.598 5.277 3.199 5.277 3.559 0 0.359-1.66 0.777-3.687 0.933-6.028 0.461-4.618 2.078 2.312 2.66 3.535 0.297 8.028 1.227 9.985 2.067s4.644 1.555 5.972 1.586c2.356 0.058 2.363 0.074 0.344 0.887-1.137 0.457-2.066 1.246-2.066 1.746 0 1.832 3.976 4.547 7.546 5.152l3.661 0.613-0.649 10.239c-0.758 11.878-1.723 14.722-6.664 19.664-3.824 3.824-8.172 5.371-26.203 9.308-4.297 0.942-9.406 2.567-11.352 3.617-7.136 3.852-10.203 4.739-11.394 3.301-1.313-1.582-2.707-0.879-2.707 1.367 0 1.149-1.477 2.231-4.817 3.528-2.652 1.027-14.121 6.195-25.488 11.488-11.367 5.297-21.543 9.895-22.613 10.223-3.809 1.168-7.07-6.629-5.777-13.797 1.476-8.164 1.613-8.395 6.804-11.367 4.278-2.446 5.051-3.297 5.051-5.528 0-3.191-0.613-3.617-6.707-4.609-6.848-1.109-13.496-2.926-13.496-3.684 0-1.211 2.637-2.847 4.308-2.672 3.543 0.368 4.254 0.051 3.071-1.375-0.61-0.738-0.805-1.832-0.434-2.433 0.485-0.785 0.024-0.926-1.68-0.5-1.519 0.379-2.5 0.179-2.75-0.559-0.21-0.629-1.097 0.231-1.968 1.91-1.981 3.813-6.09 5.676-10.383 4.711-4.176-0.945-6.156-2.863-8.047-7.808-0.859-2.246-2.145-4.09-2.859-4.09-1.536 0-1.66 1.695-0.379 5.07 0.707 1.863 0.656 2.348-0.227 2.059-1.933-0.637-5.187-6.164-6.832-11.614-1.824-6.035-2.668-7.289-4.004-5.949-0.66 0.657-0.648 1.746 0.024 3.524 1.605 4.226 0.496 3.574-3.075-1.805-3.839-5.781-5.683-6.605-4.636-2.074 0.379 1.64 0.715 3.918 0.761 5.058 0.043 1.25 1.168 2.778 2.829 3.844 1.515 0.977 3.789 2.621 5.05 3.66l2.297 1.887-2.988-0.566c-4.258-0.809-3.719 0.898 0.918 2.925 2.148 0.942 5.082 2.661 6.519 3.829 1.438 1.167 5.051 2.839 8.032 3.714 2.984 0.879 5.425 1.907 5.425 2.286 4e-3 1.21-7.714 0.718-10.355-0.657-1.402-0.734-3.609-2.59-4.902-4.129-2.5-2.968-4.594-3.75-3.68-1.375 1.246 3.25-5.297-2.023-8.316-6.703-3.071-4.754-4.895-6.066-4.895-3.523 0 0.719-0.516 1.48-1.144 1.691-0.915 0.305-0.907 0.684 0.035 1.821 0.91 1.109 0.925 1.527 0.066 1.812-0.613 0.207 1.199 1.676 4.024 3.27 6.433 3.628 7.226 4.796 3.269 4.816-3.582 0.016-6.074 1.258-4.492 2.238 0.574 0.352 3.308 0.778 6.082 0.946 4.297 0.261 7.719 1.105 16.039 3.964 1.125 0.387 1.086 0.539-0.231 0.856-2.011 0.48-2.035 1.523-0.089 3.473 1.871 1.871 5.238 3.207 8.093 3.207 1.934 0 2.118 0.347 1.809 3.445-0.187 1.894-0.516 6.789-0.734 10.879-0.446 8.449-1.629 11.262-6.895 16.355-3.66 3.547-3.816 3.598-13.164 4.356-11.426 0.929-30.59-0.211-57.68-3.43-22.988-2.73-54.433-3.891-62.914-2.32-3.031 0.558-7.886 2.191-10.793 3.625-2.906 1.429-5.418 2.465-5.586 2.297-0.164-0.164 1.469-2.149 3.633-4.407 3.809-3.976 6.774-10.82 6.774-15.629 0-1.07 0.507-2.453 1.125-3.074 0.863-0.863 0.879-1.519 0.058-2.836-0.836-1.34-0.789-2.086 0.223-3.422 1.59-2.097 1.754-8.746 0.25-10.246-2.195-2.199-6.363-1.265-9.707 2.176-2.727 2.813-3.113 3.734-2.676 6.43 0.281 1.734 0.121 3.148-0.351 3.148-0.473 0-0.895 1.551-0.93 3.446-0.035 1.894-0.625 4.89-1.305 6.656-1.121 2.914-1.246 2.996-1.308 0.875-0.079-2.801-1.629-4.551-4.028-4.551-1.207 0-1.582-0.441-1.199-1.434 0.75-1.957-1.598-6.222-6.133-11.144-6.418-6.961-12.832-9.281-20.398-7.371l-4.594 1.156-4.297 8.711c-2.547 5.156-4.328 7.895-4.363 6.707-0.059-2.008-2.266-4.887-3.738-4.887-0.43 0-1.372 0.586-2.09 1.305-1.125 1.125-1.512 1.059-2.813-0.461-0.832-0.969-1.902-1.762-2.383-1.762-1.218 0-3.734 3.766-3.734 5.586 0 1.121-0.602 1.391-2.352 1.059-1.832-0.352-2.464-0.02-2.863 1.504-0.625 2.383-2.133 2.586-2.133 0.289 0-0.914-0.593-2.461-1.32-3.442-1.156-1.562-1.574-1.632-3.324-0.562-1.438 0.879-2.285 0.945-3 0.234-1.567-1.566-4.141-1.164-5.199 0.817-0.746 1.39-1.582 1.687-3.622 1.277-2.062-0.41-2.878-0.113-3.656 1.344-0.554 1.031-1.004 2.336-1.004 2.898 0 1.899 4.493 5.528 6.844 5.528 4.652 0 2.207 1.589-3.336 2.168-4.941 0.515-5.937 0.347-7.676-1.286-1.097-1.031-3.449-2.109-5.218-2.398-2.688-0.438-3.731-0.066-6.286 2.219-2.445 2.183-3.046 3.398-2.976 6.004 0.144 5.05 4.785 10.203 7.617 8.453 1.469-0.91 1.09-3.078-1.051-5.977-1.644-2.222-1.785-2.922-0.812-4.094 2.129-2.57 4.281-1.543 7.762 3.696l3.398 5.117-3.266 3.613c-2.691 2.977-3.265 4.32-3.265 7.621 0 5.184 2.551 8.477 7.625 9.836 2.117 0.567 4.754 1.383 5.851 1.809 3.09 1.199 6.832 8.531 8.289 16.25 2.618 13.855 8.668 21.578 19.336 24.683 2.653 0.77 4.817 1.762 4.817 2.2 0 1.828-10.996 26.964-12.106 27.668-0.664 0.421-2.453 0.777-3.969 0.793-4.57 0.043-6.882 1.007-6.882 2.863h4e-3c0 1.258 0.664 1.734 2.421 1.734 1.332 0 22.516-2.711 47.071-6.023 24.558-3.313 48.34-6.418 52.855-6.899 10.656-1.14 14.524-2.23 17.867-5.043 3.954-3.328 4.973-7.32 4.207-16.507-0.355-4.278-0.418-7.778-0.14-7.778 0.281 0 1.555 0.399 2.836 0.883 1.758 0.668 2.668 0.543 3.734-0.523 2.711-2.711 0.82-6.793-3.144-6.793-6.922 0-8.7 3.433-7.829 15.078 0.614 8.199 0.563 8.515-1.781 11.304-1.734 2.063-3.711 3.145-7.027 3.856-8.774 1.883-10.16 1.519-14.207-3.738-6.594-8.571-10.527-14.063-10.527-14.692 0-0.344 1.609-0.894 3.578-1.226 9.074-1.536 21.277-9.918 24.972-17.157 2.274-4.461 2.383-14.089 0.211-18.648-0.851-1.785-1.851-3.246-2.23-3.246-1.004 0-7.246-6.047-7.246-7.02 0-0.461 1.632-0.683 3.625-0.492 4.847 0.461 8.32-2.769 8.32-7.742v-3.395l9.906 0.567c5.446 0.308 19.188 1.613 30.539 2.894 11.348 1.282 22.789 2.567 25.422 2.852 4.457 0.484 4.711 0.644 3.68 2.297-1.469 2.355-5.09 2.25-7.723-0.223l-2.129-2v3.496c0 2.809 0.637 4.094 3.219 6.528 2.348 2.218 3.215 3.808 3.215 5.921 0 1.59 1.039 5.493 2.312 8.676 2.411 6.028 2.207 8.867-0.882 12.434-0.657 0.762-1.477 3.637-1.829 6.394-0.953 7.539-3.898 13.649-7.312 15.188-4.957 2.234-6.352 3.801-5.703 6.39 0.855 3.418 3.437 2.958 8.746-1.562 3.18-2.707 5.719-6.105 8.285-11.098 2.035-3.957 5.602-9.125 7.93-11.48 2.488-2.524 5.722-7.375 7.867-11.801 2.969-6.125 4.098-7.609 6.117-8.035 1.363-0.285 7.231-1.328 13.043-2.309 17.195-2.91 28.578-7.144 40.184-14.961 3.394-2.285 3.898-2.41 3.894-0.976-0.023 4.637-1.914 8.219-5.523 10.414-2.043 1.238-4.59 2.98-5.664 3.863-1.071 0.887-2.5 1.61-3.184 1.61-1.469 0-1.543 0.902-0.34 4.07 0.492 1.297 1.422 2.355 2.067 2.351 0.644-3e-3 4.711-2.625 9.035-5.828 7.746-5.742 7.871-5.902 9.031-11.246 0.645-2.98 2.172-7.64 3.391-10.355 2.75-6.121 2.758-7.071 0.058-8.836-1.988-1.301-2.562-1.227-7.484 0.949-3.402 1.508-5.648 2.035-6.211 1.473-0.566-0.567-0.266-1.203 0.824-1.778 7.41-3.906 55.883-25.906 57.074-25.906 0.176 0 0.059 0.832-0.269 1.852-0.586 1.847 1.801 10.672 3.336 12.336 1.398 1.511 0.875 6.597-0.91 8.875-0.946 1.207-2.211 5.097-2.805 8.644-1.313 7.805-4.328 13.629-7.27 14.051-1.156 0.168-2.328 0.891-2.601 1.609-0.277 0.719-1.102 1.309-1.836
1.309-1.91 0-1.258 5.859 0.691 6.23 0.801 0.149 3.813-1.664 6.692-4.035 4.047-3.332 5.972-5.844 8.484-11.07 1.805-3.75 5.172-8.727 7.567-11.184 4.312-4.429 10.242-14.273 10.242-17.004 0-2.203 2.531-3.129 12.957-4.754 18.988-2.96 32.808-7.75 43.398-15.035 4.61-3.172 5.188-3.359 5.18-1.699-0.024 4.438-2.117 8.047-6.219 10.695-2.383 1.539-4.75 3.141-5.254 3.559s-1.644 1.039-2.527 1.375c-1.926 0.738-2.086 3.344-0.348 5.723 1.199 1.636 1.653 1.445 8.754-3.668 4.117-2.965 7.926-5.914 8.465-6.563 0.535-0.644 1.734-4.14 2.668-7.765 0.93-3.625 2.129-7.024 2.66-7.555 0.672-0.676 8.426 0.246 25.719 3.055 23.793 3.863 24.781 4.105 25.305 6.203 0.304 1.199 1.722 2.855 3.16 3.679 2.261 1.301 2.676 2.188 3.082 6.68 0.258 2.848 1.136 6.465 1.949 8.039 1.949 3.77 1.871 7.699-0.211 10.402-0.926 1.204-2.133 4.946-2.676 8.317-1.324 8.16-3.543 12.629-7.047 14.18-5.929 2.621-7.777 6.035-4.664 8.621 1.125 0.933 1.918 0.726 4.364-1.141 6.332-4.832 9.078-8.098 11.91-14.16 1.707-3.652 4.773-8.117 7.328-10.676 2.75-2.75 5.797-7.305 8.152-12.168 2.071-4.277 4.047-7.777 4.395-7.777 0.351 0 6.566-1.035 13.816-2.309 19.094-3.347 28.676-6.801 39.817-14.336 5.761-3.898 6.179-3.613 4.343 2.985-0.64 2.32-2.031 4.062-4.566 5.742-2.004 1.324-4.066 2.406-4.582 2.406s-0.938 0.426-0.938 0.945c0 0.516-1.035 1.332-2.296 1.813-2.579 0.98-2.75 1.668-1.25 4.965 0.976 2.144 1.21 2.215 3.484 1.039 1.344-0.696 5.324-3.524 8.851-6.281 6.207-4.856 6.45-5.2 7.594-10.727 0.649-3.141 2.278-7.957 3.625-10.699 1.895-3.864 2.227-5.348 1.461-6.567-1.523-2.433-5.254-2.375-10.262 0.161-4.902 2.488-5.699 2.347-5.699-0.989 0-1.183-1.894-5.746-4.215-10.144-3.672-6.961-4.14-8.481-3.636-11.703 1.382-8.797 2.047-9.985 7.371-13.168 3.746-2.239 5.078-3.579 5.078-5.102 0-2.887-1.699-4.262-5.266-4.262-1.683 0-4.543-0.621-6.359-1.379-1.813-0.757-4.258-1.375-5.43-1.375-1.168 0-2.422-0.476-2.781-1.058-0.938-1.516 1.996-3.352 4.574-2.86 1.203 0.231 2.469-0.035 2.809-0.589 0.34-0.551 0.179-1.004-0.356-1.004s-0.969-0.871-0.969-1.938c0-1.429-0.402-1.777-1.535-1.344-0.843 0.325-1.804 0.157-2.132-0.378-0.336-0.543-1.575 0.539-2.829 2.476-2.894 4.465-5.839 5.496-10.968 3.836-4.086-1.32-4.356-1.605-7.082-7.637-2.485-5.492-4.227-5.461-3.426 0.059l0.652 4.465-2.789-3.465c-1.535-1.91-3.668-6.352-4.738-9.875-1.863-6.133-3.246-7.82-4.254-5.188-0.258 0.668-0.035 2.344 0.488 3.723 1.321 3.481 0.055 2.43-3.679-3.047-4.215-6.18-6.04-5.933-3.594 0.488 0.629 1.657 0.64 2.817 0.043 3.418-0.602 0.598 0.402 1.747 2.953 3.368 2.121 1.351 4.449 3.175 5.168 4.05 1.199 1.457 1.098 1.539-1.149 0.973-4.363-1.094-2.73 1.402 2.407 3.672 2.672 1.184 5.39 2.789 6.039 3.57 0.648 0.785 3.32 2.102 5.933 2.926 2.614 0.824 5.36 1.695 6.106 1.938 3.101 1-1.184 1.855-5.723 1.136-3.875-0.613-5.34-1.414-8.109-4.445-3.5-3.824-5.102-4.715-4.184-2.324 1.52 3.961-6.078-2.184-9.121-7.379-2.555-4.356-4.066-5.227-4.066-2.34 0 0.969-0.403 1.895-0.895 2.062-2.254 0.774 0.524 4.579 5.356 7.336l5.179 2.954-2.883 0.617c-1.585 0.336-3.644 0.902-4.566 1.258-2.769 1.062 0.316 2.351 5.664 2.367 4.258 0.011 19.465 4.379 15.797 4.535-4.004 0.172 1.012 6.484 5.172 6.516 4.207 0.031 4.551 0.996 3.988 11.242-0.605 10.929-1.789 14.422-6.523 19.246-3.668 3.734-11.242 6.586-25.438 9.57-10.383 2.18-13.41 1.977-42.855-2.887-13.957-2.3-30.364-4.664-36.461-5.25-12.508-1.199-10.528 0.176-16.66-11.597-2.559-4.907-2.559-4.922-1.25-11.477 1.273-6.371 1.445-6.656 5.902-9.601 8.105-5.356 7.797-9.778-0.73-10.559-4.024-0.367-12.157-2.25-13.407-3.105-1.125-0.77 2.387-3.047 4.707-3.047 2.121 0 2.618-0.328 2.184-1.453-0.305-0.797-0.559-1.883-0.559-2.403 0-0.523-0.804-0.742-1.789-0.484-0.988 0.258-2.023 0-2.301-0.578-0.339-0.707-0.703-0.61-1.113 0.312-0.332 0.754-1.797 2.567-3.254 4.024-2.332 2.332-3.144 2.589-6.742 2.187-5.156-0.582-6.519-1.734-9.187-7.766-2.754-6.23-4.539-6.464-3.782-0.5l0.559 4.364-2.68-3.121c-1.472-1.719-3.539-5.957-4.59-9.414-1.324-4.364-2.363-6.293-3.382-6.293-1.168 0-1.364 0.66-0.95 3.211 0.289 1.769 0.383 3.214 0.215 3.214s-1.629-2.062-3.25-4.589c-1.621-2.524-3.316-4.59-3.769-4.59zm-32.336 4.004c-0.535 0.191-1.27 0.808-2.442 1.929-2.695 2.582-2.996 2.653-7.394 1.75-2.52-0.515-4.582-0.601-4.582-0.195s0.656 2.375 1.453 4.371c1.414 3.539 1.391 3.719-0.938 7.133l-2.386 3.508 4.558 0.277c3.895 0.234 4.934 0.727 7.133 3.375 1.418 1.707 2.84 3.133 3.156 3.172 0.321 0.035 1.055-1.813 1.633-4.109 0.934-3.715 1.504-4.375 5.16-5.942 2.258-0.969 4.114-1.957 4.114-2.195s-1.657-1.36-3.676-2.496c-3.207-1.801-3.684-2.481-3.692-5.34-7e-3 -1.801-0.402-3.891-0.875-4.637-0.359-0.57-0.687-0.797-1.222-0.601zm-215.9 7.695c-0.968 0.09-1.468 1.273-1.484 3.535-8e-3 1.149-0.941 2.34-2.313 2.965-2.988 1.359-2.902 2.293 0.317 3.508 1.91 0.722 2.777 1.808 3.226 4.035l0.61 3.051 2.617-2.504c2.043-1.953 3.152-2.379 5.043-1.903 2.773 0.696 3.203-0.777 1.059-3.613-1.141-1.504-1.125-2.094 0.121-4.5l1.429-2.769-3.09 0.5c-2.246 0.367-3.699 0.011-5.296-1.278-0.914-0.738-1.657-1.078-2.239-1.027zm-74.254 27.945c-0.511 0.192-0.726 1.153-0.726 2.914 0 2.379-0.512 3.301-2.293 4.114-2.977 1.355-2.891 2.121 0.465 4.031 1.922 1.094 2.75 2.265 2.75 3.902 0 2.817 0.976 2.969 3.211 0.5 1.031-1.137 2.832-1.836 4.738-1.836 3.527 0 3.602-0.168 1.562-3.285-1.218-1.859-1.304-2.746-0.457-4.601 1.489-3.274 1.395-3.403-2.011-2.766-2.383 0.445-3.438 0.164-4.739-1.273-1.187-1.313-1.992-1.891-2.5-1.7zm152.47 28.477c-0.519 0.18-0.73 1.137-0.73 2.902 0 2.324-0.551 3.356-2.297 4.289-2.926 1.567-2.875 1.957 0.469 3.86 1.523 0.867 2.746 2.332 2.746 3.289 0 0.949 0.281 2.011 0.621 2.351s1.504-0.211 2.586-1.226c1.117-1.051 3.226-1.844 4.89-1.844 3.356 0 3.442-0.195 1.481-3.188-1.098-1.675-1.207-2.64-0.461-4.039 1.687-3.152 1.219-3.921-2.027-3.312-2.344 0.441-3.395 0.141-4.735-1.34-1.211-1.336-2.031-1.926-2.547-1.742zm227.74 7.223c2.418 0.027 2.45 0.082 0.743 1.374-2.274 1.719-3.27 1.711-3.27-0.027 0-0.898 0.879-1.367 2.527-1.347zm15.364 2.257c2.531-0.175 9.144 0.762 26.355 3.528 14.817 2.375 27.863 4.316 29 4.308 2.293-0.019 2.637 0.879 0.969 2.551-1.367 1.363-6.844 1.453-7.668 0.121-0.332-0.539-1.223-0.742-1.977-0.453s-9.906-0.914-20.34-2.664c-10.433-1.754-21.14-3.461-23.793-3.797-5.019-0.633-5.343-0.883-3.96-3.07 0.179-0.281 0.57-0.465 1.414-0.524zm-101.43 16.375c0.609 0.059 1.015 0.371 1.535 0.891 1.387 1.391 1.371 1.551-0.27 2.144-2.863 1.036-28.433 12.586-39.937 18.04-13.762 6.519-14.301 6.679-14.887 4.441-0.355-1.363 0.223-2.07 2.41-2.941 1.586-0.633 10.942-4.926 20.793-9.543 9.852-4.618 20.719-9.579 24.153-11.02 3.609-1.512 5.187-2.113 6.203-2.012zm-296.06 2.7c0.473-0.082 1.039 0.144 1.684 0.796 0.684 0.692 1.523 3.43 1.871 6.082 0.695 5.348-0.035 5.981-3.121 2.696-2.777-2.953-2.484-9.203-0.434-9.574zm7.852 0.906c0.629 0.207 1.266 1.808 1.418 3.562 0.191 2.25-0.254 3.672-1.516 4.817-1.738 1.57-1.82 1.539-2.383-1.035-0.703-3.192 0.879-7.868 2.481-7.344zm-28.707 2.07c1.555 0 2.266 3.219 1.437 6.524-0.3 1.21-0.953 2.203-1.437 2.203-1.121 0-2.082-3.75-1.68-6.571 0.168-1.187 0.922-2.156 1.68-2.156zm6.89 0.18c1.227 0.242 1.668 2.668 0.985 5.386-0.305 1.211-1.82 2.864-3.375 3.665-2.797 1.445-2.824 1.441-2.199-0.668 1.187-4.028 3.672-8.563 4.589-8.383zm7.672 2.543c0.555 0.035 1.586 0.906 3.61 2.875 2.129 2.066 3.871 4.031 3.871 4.363 0 1.5-4.539-0.449-6.738-2.898-0.93-1.032-1.532-2.629-1.344-3.551 0.101-0.528 0.265-0.809 0.601-0.789zm-21.832 0.152c1.621 0.262 4.145 3.016 4.934 5.617 0.742 2.457-0.59 2.653-4.324 0.625-2.739-1.484-3.508-5.328-1.242-6.199 0.187-0.07 0.402-0.082 0.632-0.043zm39.262 2.543c0.078 0.027 0.121 0.102 0.129 0.246 0.023 0.59 0.281 1.727 0.586 2.524 0.398 1.043 8e-3 1.453-1.379 1.453-1.066 0-1.938-0.332-1.938-0.742 0-1.059 2.063-3.637 2.602-3.481zm-19.586 0.75c0.711 0.152 0.496 1.234-0.691 2.844-1.153 1.566-7.164 3.804-7.071 2.633 0.071-0.813 4.856-4.582 6.746-5.309 0.442-0.168 0.778-0.223 1.016-0.168zm2.266 3.043c0.504 0.113 0.945 0.461 0.945 0.945 0 0.223-0.648 0.407-1.434 0.407-0.785 0-1.175-0.422-0.859-0.934 0.262-0.426 0.836-0.535 1.344-0.418zm23.98 7.781c0.629 0 0.758 1.035 0.36 2.86-0.375 1.714-0.176 3.714 0.496 4.972 0.929 1.735 0.867 2.477-0.36 4.231-1.425 2.035-1.492 1.832-1.492-4.969 0-4.465 0.371-7.094 0.996-7.094zm76.617 4.367 11.024 0.575c6.062 0.316 22.18 1.808 35.816 3.328 13.641 1.515 29.965 3.082 36.278 3.472l11.484 0.711-5.973 1.235c-10.605 2.187-10.117 2.207-43.625-1.746-8.586-1.012-21.398-2.266-28.468-2.785-11.122-0.821-13.11-1.207-14.7-2.868zm-16.332 1.497c0.774 0.773-5.004 4.796-9.578 6.66-2.926 1.191-5.379 2.164-5.449 2.168-0.066 0-0.367-0.61-0.656-1.36-0.664-1.734 5.66-5.531 11.324-6.8 2.258-0.504 4.219-0.805 4.359-0.668zm-6.937 9.007c0.855-0.132 0.832 0.317 0.41 1.786-0.344 1.195-1.012 4.402-1.484 7.128-0.473 2.727-1.805 6.34-2.957 8.032h4e-3c-1.153 1.691-2.403 3.074-2.774 3.078-0.375 4e-3 -0.594-3.723-0.488-8.285 0.203-8.887 0.637-9.692 6.121-11.426 0.496-0.16 0.883-0.266 1.168-0.313zm320.57 23.34-1.394 3.344c-1.137 2.727-2.012 3.457-4.75 3.969l-3.352 0.629 2.84 2.925c2.414 2.493 2.742 3.379 2.223 5.981-0.344 1.719-0.25 2.883 0.218 2.668 0.454-0.211 1.997-0.965 3.418-1.676 2.075-1.035 3.161-1.082 5.45-0.219 3.578 1.352 3.906 1.016 2.617-2.683-0.93-2.668-0.797-3.215 1.285-5.391 2.703-2.82 2.238-3.672-1.996-3.672-1.684 0-3.07-0.308-3.078-0.687s-0.797-1.703-1.75-2.938zm124.22 24.781c-0.859-0.074-1.32 1.008-1.32 3.211 0 2.012-0.598 2.993-2.293 3.766-2.918 1.332-2.91 2.402 0.023 3.516 1.274 0.488 2.516 1.507 2.754 2.273 0.242 0.766 0.656 2.074 0.922 2.906h-8e-3c0.43 1.34 0.735 1.286 2.59-0.461 1.242-1.164 3.297-1.968 5.027-1.968 3.356 0 3.442-0.196 1.481-3.192-1.098-1.676-1.211-2.64-0.461-4.039
1.687-3.152 1.219-3.918-2.027-3.312-2.34 0.441-3.399 0.144-4.719-1.317-0.797-0.879-1.453-1.34-1.973-1.383zm-454.52 8.891c1.984-0.105 3.164 1.254 9.34 9.242l7.445 9.629-2.906 0.524c-1.602 0.289-13.657 1.961-26.793 3.726-13.133 1.762-28.395 3.84-33.914 4.617-11.571 1.625-14.579 1.746-14.153 0.567 0.168-0.469 2.547-6.36 5.285-13.094l4.973-12.242 14.773-0.082c12.895-0.07 25.602-1.07 35.032-2.762 0.336-0.062 0.633-0.109 0.918-0.125zm231.06 10.867c-0.722 0.184-1.691 0.946-2.945 2.282-2.031 2.164-2.652 2.32-7.07 1.769l-4.844-0.601 1.98 4.07 1.977 4.074-2.434 3.574-2.429 3.571 5.035 0.277c4.379 0.238 5.293 0.629 6.968 2.984 1.063 1.492 2.305 2.711 2.77 2.711s1.32-1.887 1.898-4.191c0.914-3.629 1.532-4.383 4.606-5.613 1.953-0.782 3.555-1.778 3.555-2.215 0-0.442-1.657-1.645-3.676-2.676-3.461-1.766-3.676-2.113-3.676-5.988 0-3.012-0.512-4.328-1.715-4.028zm127.25 12.914c-0.472 0.121-0.621 0.95-0.621 2.524 0 1.996-0.734 3.129-2.941 4.527l-2.938 1.863 2.711 1.192c3.274 1.441 4.059 2.426 4.074 5.133 0.024 2.742 1.282 2.617 3.204-0.313 1.343-2.051 2-2.305 4.695-1.801 3.558 0.668 3.715 0.411 1.664-2.722-1.195-1.821-1.281-2.801-0.461-5.157 0.555-1.601 1.016-3.023 1.016-3.164 0-0.144-1.321 0.118-2.938 0.582-2.41 0.692-3.289 0.512-4.883-0.984-1.308-1.23-2.109-1.805-2.582-1.68zm80.574 37.313-5.449 6.758c-13.078 16.207-27.742 29.55-38.355 34.906l-5.539 2.797 2.672 1.691c1.472 0.926 5.73 2.528 9.464 3.559 3.735 1.035 6.997 2.082 7.247 2.332 1.578 1.578-19.219 22.633-32.7 33.113-4.964 3.859-5.605 4.672-4.363 5.574 1.309 0.961 9.082 3.309 19.613 5.934l3.934 0.976-3.816 5.446c-3.016 4.293-4.133 5.265-5.313 4.629-2.184-1.176-5.062-4.516-8.172-9.473l-2.742-4.363-1.129 2.734c-1.144 2.766-6.855 8.551-11.34 11.492-3.371 2.207-3.121 3.594 0.512 2.868 1.691-0.34 2.57-0.25 2.062 0.207-0.488 0.437-3.683 3.132-7.101 5.988-4.422 3.691-5.688 5.187-4.395 5.187 1 0 3.278-1.285 5.063-2.851 1.941-1.703 3.246-2.352 3.25-1.61 4e-3 1.457-12.41 13.387-16.313 15.676l-2.675 1.57-3.375-6.078c-1.86-3.339-3.274-6.144-3.141-6.238s2.551-1.676 5.371-3.519c2.82-1.844 5.848-4.145 6.723-5.114 1.547-1.707 1.336-1.886-6.965-5.972-15.582-7.676-25.344-16.68-28.488-26.278l-1.352-4.133-0.656 4.922c-0.801 6.02-4.125 15.067-7.508 20.422-3.559 5.641-11.16 13.492-15.996 16.52l-4.113 2.574 2.734 0.996c1.504 0.551 3.914 1.473 5.355 2.047l2.625 1.043-2.164 1.648c-1.789 1.364-8.879 4.289-14.441 5.961-1.559 0.469 3.875 4.953 10.695 8.828 3.914 2.223 4.645 3.004 3.793 4.032-0.582 0.699-1.461 1.269-1.961 1.269-0.496 0-4.269-2.672-8.383-5.941-14.546-11.567-14.675-11.739-8.628-10.992 8.187 1.007 7.836-2.215-0.77-7.071-6.352-3.586-21.996-19.738-22.84-23.582-0.867-3.945-2.152-4.488-3.258-1.375-1.386 3.891-3.441 7.172-4.496 7.172-1.043 0-31.328-28.707-31.316-29.687 4e-3 -0.34 1.781-0.7 3.953-0.797 4.086-0.18 12.82-3.055 15.715-5.168 1.5-1.098 0.859-1.774-6.942-7.309-13.89-9.851-28.207-23.379-37.695-35.605l-2.465-3.176-1.621 2.254c-11.656 16.172-30.312 33.765-42.476 40.054-4.465 2.305-4.782 2.668-3.309 3.743 1.68 1.23 7.152 3.148 13.984 4.906 2.145 0.555 3.907 1.305 3.907 1.672 0 2.519-21.059 23.418-33.278 33.027-2.89 2.274-5.058 4.465-4.812 4.863 0.535 0.868 9.894 3.93 16.961 5.551 2.777 0.641 5.414 1.465 5.847 1.832 0.782 0.66-7.55 13.68-8.757 13.688-0.34 4e-3 -1.098-1.446-1.68-3.211-1.02-3.086-2.758-4.41-2.758-2.106 0 0.61-2.312 4.985-5.144 9.731-3.836 6.426-5.411 8.359-6.188 7.582-0.773-0.778-0.402-2.262 1.473-5.844 1.383-2.641 2.515-5.434 2.515-6.207 0-1.934-1.843-3.617-3.964-3.617-1.387 0-1.637-0.434-1.176-2.063 1.445-5.066 1.5-6.765 0.285-8.41-1.137-1.527-1.676-1.609-4.359-0.672-3.649 1.27-6.262-0.207-3.313-1.871 3.289-1.855 5.18-4.453 5.18-7.121 0-2.785-1.672-4.527-7.325-7.637-2.246-1.238-2.773-2.023-2.324-3.449 0.336-1.058 0.168-1.84-0.394-1.84-1.43 0-1.2-3.343 0.445-6.523 1.688-3.262 0.984-6.332-1.449-6.332-1.57 0-1.723-0.692-1.547-7.379 0.144-5.617-0.129-7.57-1.145-8.203-1.89-1.18-6.222 1.508-9.136 5.668-1.313 1.875-2.637 3.426-2.942 3.445-0.308 0.02-0.836-3.324-1.179-7.43-0.344-4.105-1.051-8.265-1.575-9.242-2.199-4.109-5.261 0.871-6.214 10.117-0.571 5.532-0.743 5.93-1.778 4.082-1.41-2.519-7.371-6.675-9.578-6.675-2.359 0-2.059 3.32 0.793 8.734l2.414 4.586-2.648-2.269c-4.063-3.481-30.653-29.797-30.649-30.329 4e-3 -0.257 1.781-0.547 3.949-0.644 4.059-0.18 12.825-3.051 15.676-5.137 1.442-1.055 0.922-1.64-5.097-5.738-13.813-9.399-32.012-26.297-39.079-36.281-1.402-1.981-2.804-3.508-3.117-3.395-0.312 0.113-3.191 3.516-6.394 7.555-12.2 15.383-32.446 33.121-39.961 35.008-1.219 0.308-2.215 0.914-2.215 1.355 0 1.301 6.68 4.324 13.18 5.957 5.523 1.387 5.976 1.68 5.105 3.301-1.793 3.355-19.422 20.953-28.496 28.453-4.992 4.125-9.078 7.633-9.078 7.793 0 0.918 6.34 3.273 14.156 5.258 4.926 1.25 9.117 2.433 9.313 2.633 0.281 0.277-4.996 8.839-6.629 10.761-0.699 0.817-8.625-7.789-10.305-11.183l-1.734-3.508-2.399 4.082c-1.367 2.336-4.734 5.789-7.855 8.062-3.004 2.188-5.489 4.289-5.516 4.668-0.023 0.379 0.922 0.688 2.11 0.688 1.652 0 3.847 2.199 9.394 9.414 54.301 70.594 135.04 116.49 220.82 125.53 5.305 0.559 10.883 1.18 12.399 1.375 7.008 0.918 54.922-0.308 65.523-1.675 104.07-13.418 194.2-75.274 244.85-168.05l3.445-6.321-6.277-6.082c-8.727-8.453-14.625-14.957-13.004-14.336 1.957 0.754 9.547-1.117 15.656-3.855l5.262-2.359-6.637-4.633c-13.656-9.539-31.125-25.692-39.785-36.797zm-512.14 13.992c-0.352-0.012-0.766 2.141-0.918 4.781-0.266 4.535-0.477 4.91-3.949 6.856-2.02 1.129-3.676 2.527-3.676 3.109s1.656 1.703 3.676 2.496c4.41 1.731 4.718 2.137 5.484 7.235 0.324 2.187 0.949 3.98 1.383 3.98 0.433 0 2.094-1.652 3.695-3.672 2.899-3.664 2.922-3.672 7.883-3.09 2.738 0.325 4.973 0.301 4.973-0.047 0-0.351-1.032-2.156-2.293-4.015-2.766-4.07-2.809-4.785-0.5-9.305 0.988-1.937 1.586-3.738 1.324-4-0.262-0.258-2.434 0.043-4.828 0.676-4.297 1.133-4.403 1.109-7.985-1.922-1.996-1.687-3.914-3.078-4.269-3.082zm166.24 8.383c-0.508 0.16-0.734 1.035-0.734 2.637 0 2.132-0.676 3.179-2.942 4.558l-2.949 1.793 3.41 1.426c2.539 1.058 3.399 1.961 3.399 3.551 0 1.172 0.308 2.433 0.679 2.804 0.375 0.375 1.559-0.425 2.637-1.781 1.652-2.07 2.414-2.359 4.832-1.828 3.234 0.707 3.547 0.02 1.387-3.066-1.188-1.696-1.281-2.579-0.461-4.383 1.476-3.239 1.371-3.383-2.106-2.817-2.371 0.383-3.527 0.075-4.734-1.257-1.129-1.247-1.914-1.797-2.422-1.637zm188.17 0.019c-0.473 0.137-0.617 0.977-0.617 2.582 0 1.907-0.695 3.196-2.297 4.243-2.984 1.957-2.895 2.742 0.461 3.914 2.023 0.703 2.758 1.535 2.758 3.144 0 1.207 0.304 2.496 0.679 2.871 0.372 0.371 1.555-0.429 2.637-1.781 1.649-2.07 2.414-2.363 4.832-1.832 3.231 0.711 3.543 0.02 1.383-3.066-1.188-1.696-1.281-2.579-0.461-4.379 1.59-3.485 1.293-3.957-1.906-3.039-2.41 0.691-3.289 0.519-4.883-0.981-1.313-1.234-2.113-1.808-2.586-1.676z"/></g></svg>